<?xml version="1.0" encoding="UTF-8" standalone="no"?>
<!DOCTYPE svg PUBLIC "-//W3C//DTD SVG 1.1//EN" "http://www.w3.org/Graphics/SVG/1.1/DTD/svg11.dtd">
<svg width="100%" height="100%" viewBox="0 0 225 72" version="1.1" xmlns="http://www.w3.org/2000/svg" xmlns:xlink="http://www.w3.org/1999/xlink" xml:space="preserve" xmlns:serif="http://www.serif.com/" style="fill-rule:evenodd;clip-rule:evenodd;stroke-linejoin:round;stroke-miterlimit:2;">
    <g transform="matrix(1,0,0,1,-36,-114)">
        <rect x="0" y="0" width="300" height="300" style="fill-opacity:0;"/>
    </g>
    <g id="a9da25ef-ae62-4f06-b270-08249fc46ee9" transform="matrix(4.39584,0,0,4.39584,82.498,-2.94712)">
        <path d="M8.57,3.79L0.31,3.79L0.31,6.01L0.98,6.01C1.15,6.01 1.23,5.96 1.26,5.87C1.29,5.77 1.33,5.46 1.39,4.93L3.75,4.93L3.75,12.8C3.39,12.87 3.14,12.92 2.98,12.95C2.83,12.98 2.74,13.09 2.74,13.23L2.74,13.82L6.13,13.82L6.13,13.23C6.13,13.09 6.09,13.01 5.99,12.98C5.89,12.95 5.66,12.91 5.29,12.84C5.18,12.81 5.12,12.81 5.12,12.81L5.12,4.94L7.48,4.94C7.53,5.47 7.59,5.77 7.62,5.87C7.64,5.96 7.71,6.01 7.88,6.01L8.57,6.01L8.57,3.79ZM13.66,12.95C13.58,12.92 13.16,12.84 12.96,12.8L12.96,9.25C12.96,8.86 12.92,8.5 12.81,8.16C12.7,7.83 12.54,7.55 12.33,7.32C12.12,7.1 11.87,6.93 11.56,6.79C11.26,6.65 10.89,6.59 10.5,6.59C9.94,6.59 9.44,6.68 8.99,6.87C8.54,7.07 8.12,7.34 7.73,7.71L7.95,8.11C7.98,8.16 8.04,8.23 8.09,8.27C8.15,8.32 8.23,8.33 8.32,8.33C8.43,8.33 8.53,8.3 8.64,8.22C8.75,8.13 8.89,8.06 9.04,7.97C9.2,7.87 9.37,7.8 9.58,7.71C9.79,7.63 10.04,7.59 10.35,7.59C10.81,7.59 11.16,7.74 11.4,8.02C11.63,8.3 11.76,8.72 11.76,9.28L11.76,9.83C10.95,9.83 10.28,9.88 9.72,10.01C9.16,10.14 8.71,10.32 8.37,10.51C8.04,10.71 7.77,10.96 7.62,11.21C7.46,11.47 7.39,11.75 7.39,12.03C7.39,12.35 7.43,12.63 7.55,12.87C7.66,13.1 7.8,13.3 7.97,13.45C8.13,13.61 8.36,13.71 8.6,13.79C8.83,13.87 9.07,13.92 9.35,13.92C9.63,13.92 9.88,13.9 10.11,13.85C10.33,13.79 10.53,13.72 10.72,13.64C10.92,13.55 11.12,13.44 11.28,13.3C11.45,13.16 11.65,13.01 11.84,12.84L11.98,13.51C12.01,13.62 12.04,13.71 12.12,13.73C12.21,13.76 12.31,13.79 12.42,13.79L13.87,13.79L13.87,13.19C13.87,13.06 13.79,12.95 13.66,12.92L13.66,12.95ZM11.73,12.08C11.59,12.22 11.45,12.36 11.31,12.47C11.17,12.59 11.02,12.7 10.85,12.78C10.68,12.87 10.51,12.92 10.33,12.96C10.15,13.01 9.97,13.03 9.74,13.03C9.58,13.03 9.42,13.01 9.28,12.96C9.14,12.92 9.03,12.87 8.92,12.78C8.81,12.7 8.72,12.59 8.67,12.45C8.61,12.31 8.57,12.17 8.57,11.97C8.57,11.77 8.62,11.61 8.74,11.44C8.85,11.27 9.04,11.13 9.3,11.02C9.55,10.91 9.88,10.79 10.28,10.72C10.67,10.65 11.16,10.63 11.73,10.63L11.73,12.08ZM16.9,8.18L16.81,7.07C16.79,6.94 16.76,6.86 16.7,6.8C16.65,6.75 16.58,6.73 16.44,6.73L14.71,6.73L14.71,7.32C14.71,7.46 14.78,7.56 14.92,7.59C15.01,7.62 15.27,7.67 15.72,7.76L15.72,12.81L14.92,12.96C14.78,12.99 14.71,13.09 14.71,13.23L14.71,13.82L17.98,13.82L17.98,13.23C17.98,13.09 17.91,12.99 17.77,12.96C17.35,12.88 17.08,12.84 16.97,12.81L16.97,9.31C17.36,8.33 17.98,7.83 18.79,7.83C19.04,7.83 19.22,7.85 19.36,7.9C19.5,7.94 19.61,7.97 19.7,7.97C19.78,7.97 19.85,7.9 19.88,7.78L20.03,6.85C19.75,6.68 19.43,6.59 19.07,6.59C18.14,6.59 17.43,7.13 16.91,8.18L16.9,8.18ZM23.73,6.62C23.21,6.62 22.75,6.71 22.33,6.87C21.91,7.04 21.55,7.29 21.25,7.6C20.96,7.91 20.73,8.3 20.57,8.75C20.4,9.2 20.34,9.7 20.34,10.26C20.34,10.82 20.4,11.33 20.57,11.77C20.73,12.22 20.96,12.61 21.25,12.92C21.55,13.23 21.91,13.48 22.33,13.65C22.75,13.82 23.21,13.9 23.73,13.9C24.25,13.9 24.71,13.82 25.13,13.65C25.55,13.48 25.91,13.23 26.21,12.92C26.5,12.61 26.73,12.22 26.88,11.77C27.03,11.33 27.12,10.82 27.12,10.26C27.12,9.7 27.03,9.2 26.88,8.75C26.73,8.3 26.5,7.91 26.21,7.6C25.91,7.29 25.55,7.04 25.13,6.87C24.71,6.71 24.25,6.62 23.73,6.62ZM23.73,12.95C23.37,12.95 23.06,12.87 22.81,12.75C22.55,12.64 22.33,12.47 22.16,12.25C21.99,12.03 21.85,11.75 21.77,11.41C21.69,11.07 21.63,10.71 21.63,10.29C21.63,9.87 21.69,9.48 21.77,9.14C21.85,8.81 21.99,8.53 22.16,8.3C22.33,8.08 22.55,7.88 22.81,7.77C23.06,7.66 23.37,7.6 23.73,7.6C24.43,7.6 24.96,7.83 25.3,8.3C25.63,8.78 25.82,9.44 25.82,10.28C25.82,11.12 25.63,11.77 25.3,12.25C24.96,12.73 24.43,12.95 23.73,12.95ZM30.46,13.93C30.79,13.93 31.09,13.87 31.4,13.76C31.71,13.65 31.96,13.48 32.19,13.29L31.82,12.7C31.77,12.61 31.71,12.59 31.65,12.59C31.63,12.59 31.57,12.61 31.51,12.64C31.46,12.67 31.42,12.71 31.35,12.75C31.28,12.8 31.19,12.84 31.09,12.87C31,12.89 30.88,12.92 30.74,12.92C30.52,12.92 30.31,12.85 30.17,12.71C30.03,12.57 29.96,12.35 29.96,12.04L29.96,7.78L31.99,7.78L31.99,6.87L29.96,6.87L29.96,4.44L29.33,4.44C29.25,4.44 29.19,4.45 29.13,4.49C29.08,4.54 29.05,4.59 29.05,4.66L28.77,6.86L27.61,7.01L27.61,7.5C27.61,7.59 27.62,7.67 27.68,7.71C27.73,7.76 27.79,7.77 27.87,7.77L28.73,7.77L28.73,12.11C28.73,12.7 28.87,13.15 29.18,13.45C29.48,13.76 29.9,13.93 30.46,13.93Z" style="fill:white;fill-rule:nonzero;"/>
    </g>
    <g id="cfffb631-29da-43a9-9ed1-46e49f0863c8" transform="matrix(0.139293,0,0,0.139293,1.77131,0.340963)">
        <path d="M488,16L216,16C211.611,16 208,19.611 208,24L208,64L24,64C19.611,64 16,67.611 16,72L16,488C16,492.389 19.611,496 24,496L296,496C300.389,496 304,492.389 304,488L304,448L488,448C492.389,448 496,444.389 496,440L496,24C496,19.611 492.389,16 488,16ZM448,48C437.571,48 428.679,41.311 425.376,32L470.624,32C467.321,41.311 458.429,48 448,48ZM384,48C373.571,48 364.679,41.311 361.376,32L406.624,32C403.321,41.311 394.429,48 384,48ZM320,48C309.571,48 300.679,41.311 297.376,32L342.624,32C339.321,41.311 330.429,48 320,48ZM256,48C245.571,48 236.679,41.311 233.376,32L278.624,32C275.321,41.311 266.429,48 256,48ZM448,64L448,174.369C428.385,141.819 392.694,120 352,120C335.397,119.99 318.999,123.68 304,130.801L304,72C304,67.611 300.389,64 296,64L448,64ZM304,148.855C318.549,140.439 335.049,136 352,136C397.331,136 435.42,167.583 445.428,209.9C426.096,192.486 391.832,168 352,168C336.36,168 320.26,171.807 304,179.33L304,148.855ZM445.173,232C438.616,238.833 425.565,251.281 408.618,261.791C413.474,252.613 416.009,242.384 416,232C416.009,221.616 413.474,211.386 408.618,202.208C425.567,212.719 438.618,225.169 445.173,232ZM352,184C378.468,184 400,205.533 400,232C400,258.467 378.468,280 352,280C325.532,280 304,258.467 304,232C304,205.533 325.532,184 352,184ZM352,296C391.832,296 426.096,271.514 445.428,254.1C435.42,296.417 397.331,328 352,328C335.061,328 318.547,323.566 304,315.152L304,284.67C320.259,292.193 336.359,296 352,296ZM304,333.199C318.999,340.318 335.397,344.008 352,344C392.694,344 428.385,322.181 448,289.631L448,400L304,400L304,333.199ZM384,416C394.429,416 403.321,422.689 406.624,432L361.376,432C364.679,422.689 373.571,416 384,416ZM448,416C458.429,416 467.321,422.689 470.624,432L425.376,432C428.679,422.689 437.571,416 448,416ZM464,403.35L464,392C464,381.571 470.689,372.679 480,369.376L480,416.028C475.846,410.497 470.334,406.13 464,403.35ZM464,328C464,317.571 470.689,308.679 480,305.376L480,350.624C470.689,347.321 464,338.429 464,328ZM464,264C464,253.571 470.689,244.679 480,241.376L480,286.624C470.689,283.321 464,274.429 464,264ZM464,200C464,189.571 470.689,180.679 480,177.376L480,222.624C470.689,219.321 464,210.429 464,200ZM464,136C464,125.571 470.689,116.679 480,113.376L480,158.624C470.689,155.321 464,146.429 464,136ZM464,72L464,60.65C470.334,57.87 475.846,53.503 480,47.972L480,94.624C470.689,91.321 464,82.429 464,72ZM224,54.131C226.998,56.815 229.276,60.209 230.624,64L224,64L224,54.131ZM288,480L32,480L32,80L288,80L288,480ZM304,416L320,416C330.429,416 339.321,422.689 342.624,432L304,432L304,416ZM264,96L56,96C51.611,96 48,99.611 48,104L48,456C48,460.389 51.611,464 56,464L264,464C268.389,464 272,460.389 272,456L272,104C272,99.611 268.389,96 264,96ZM152,360C152,355.589 155.589,352 160,352C164.411,352 168,355.589 168,360C168,364.411 164.411,368 160,368C155.589,368 152,364.411 152,360ZM160,157.541L168,177.541L168,337.377C165.496,336.489 162.804,336.001 160,336.001C157.196,336.001 154.504,336.489 152,337.377L152,177.541L160,157.541ZM136,272L64,272L64,209.249L136,270.172L136,272ZM64,288L136,288L136,289.828L64,350.751L64,288ZM131.695,352L126.747,352L135.831,336.626L131.695,352ZM167.265,411.423L160,415.056L152.735,411.424L156.686,383.767C157.77,383.917 158.875,384.001 160,384.001C161.125,384.001 162.23,383.917 163.314,383.767L167.265,411.423ZM184,337.597L184,336.341L193.253,352L187.928,352L184,337.597ZM184.077,289.894L184,289.985L184,288L256,288L256,350.751L184.077,289.894ZM256,272L184,272L184,270.172L256,209.249L256,272ZM181.914,169.245L168,134.459L168,112L197.526,112L181.914,169.245ZM214.132,112L249.98,112L184.169,223.373L214.132,112ZM152,134.459L137.012,171.929L122.003,112L152,112L152,134.459ZM136,222.402L136,223.658L70.02,112L105.89,112L136,222.402ZM129.03,243.314L64,188.289L64,133.264L129.03,243.314ZM64,371.711L129.029,316.686L108.162,352L104,352C99.611,352 96,355.611 96,360C96,362.654 97.321,365.14 99.519,366.627L64,426.736L64,371.711ZM117.292,368L127.39,368L105.867,448L70.02,448L117.292,368ZM141.107,379.675L136.08,414.868C135.595,418.268 137.351,421.618 140.422,423.155L152,428.944L152,448L122.474,448L141.107,379.675ZM168,428.944L179.578,423.155C182.649,421.618 184.405,418.268 183.92,414.868L179.708,385.382L197.423,448L168,448L168,428.944ZM192.292,368L202.708,368L249.981,448L214.111,448L192.292,368ZM220.481,366.627C222.679,365.14 224,362.654 224,360C224,355.611 220.389,352 216,352L211.838,352L190.971,316.687L256,371.711L256,426.736L220.481,366.627ZM256,188.289L190.971,243.314L256,133.264L256,188.289Z" style="fill:#00C9AA;fill-rule:nonzero;"/>
    </g>
</svg>
