<svg data-v-423bf9ae="" xmlns="http://www.w3.org/2000/svg" viewBox="0 0 2769 2560" class="iconLeft"><!----><!----><!----><g data-v-423bf9ae="" id="8fae082f-18a1-4373-b1e6-e5efccdf5197" fill="white" transform="matrix(5.917159562968884,0,0,5.917159562968884,2578.1657392314796,1227.5739802640217)"><path d="M8.34 3.79L7.87 3.79L0.31 3.79L0.31 6.01L0.98 6.01C1.15 6.01 1.23 5.96 1.26 5.87C1.29 5.77 1.33 5.46 1.39 4.93L3.75 4.93L3.75 12.80C3.39 12.87 3.14 12.92 2.98 12.95C2.83 12.98 2.74 13.09 2.74 13.23L2.74 13.82L6.13 13.82L6.13 13.23C6.13 13.09 6.09 13.01 5.99 12.98C5.89 12.95 5.66 12.91 5.29 12.84C5.18 12.81 5.12 12.81 5.12 12.81L5.12 4.94L7.48 4.94C7.53 5.47 7.59 5.77 7.62 5.87C7.64 5.96 7.71 6.01 7.88 6.01L8.57 6.01L8.57 3.79ZM13.66 12.95C13.58 12.92 13.16 12.84 12.96 12.80L12.96 9.25C12.96 8.86 12.92 8.50 12.81 8.16C12.70 7.83 12.54 7.55 12.33 7.32C12.12 7.10 11.87 6.93 11.56 6.79C11.26 6.65 10.89 6.59 10.50 6.59C9.94 6.59 9.44 6.68 8.99 6.87C8.54 7.07 8.12 7.34 7.73 7.71L7.95 8.11C7.98 8.16 8.04 8.23 8.09 8.27C8.15 8.32 8.23 8.33 8.32 8.33C8.43 8.33 8.53 8.30 8.64 8.22C8.75 8.13 8.89 8.06 9.04 7.97C9.20 7.87 9.37 7.80 9.58 7.71C9.79 7.63 10.04 7.59 10.35 7.59C10.81 7.59 11.16 7.74 11.40 8.02C11.63 8.30 11.76 8.72 11.76 9.28L11.76 9.83C10.95 9.83 10.28 9.88 9.72 10.01C9.16 10.14 8.71 10.32 8.37 10.51C8.04 10.71 7.77 10.96 7.62 11.21C7.46 11.47 7.39 11.75 7.39 12.03C7.39 12.35 7.43 12.63 7.55 12.87C7.66 13.10 7.80 13.30 7.97 13.45C8.13 13.61 8.36 13.71 8.60 13.79C8.83 13.87 9.07 13.92 9.35 13.92C9.63 13.92 9.88 13.90 10.11 13.85C10.33 13.79 10.53 13.72 10.72 13.64C10.92 13.55 11.12 13.44 11.28 13.30C11.45 13.16 11.65 13.01 11.84 12.84L11.98 13.51C12.01 13.62 12.04 13.71 12.12 13.73C12.21 13.76 12.31 13.79 12.42 13.79L12.87 13.79L12.96 13.79L13.87 13.79L13.87 13.19C13.87 13.06 13.79 12.95 13.66 12.92ZM11.73 12.08C11.59 12.22 11.45 12.36 11.31 12.47C11.17 12.59 11.02 12.70 10.85 12.78C10.68 12.87 10.51 12.92 10.33 12.96C10.15 13.01 9.97 13.03 9.74 13.03C9.58 13.03 9.42 13.01 9.28 12.96C9.14 12.92 9.03 12.87 8.92 12.78C8.81 12.70 8.72 12.59 8.67 12.45C8.61 12.31 8.57 12.17 8.57 11.97C8.57 11.77 8.62 11.61 8.74 11.44C8.85 11.27 9.04 11.13 9.30 11.02C9.55 10.91 9.88 10.79 10.28 10.72C10.67 10.65 11.16 10.63 11.73 10.63ZM16.90 8.18L16.81 7.07C16.79 6.94 16.76 6.86 16.70 6.80C16.65 6.75 16.58 6.73 16.44 6.73L15.72 6.73L14.71 6.73L14.71 7.32C14.71 7.46 14.78 7.56 14.92 7.59C15.01 7.62 15.27 7.67 15.72 7.76L15.72 12.81L14.92 12.96C14.78 12.99 14.71 13.09 14.71 13.23L14.71 13.82L17.98 13.82L17.98 13.23C17.98 13.09 17.91 12.99 17.77 12.96C17.35 12.88 17.08 12.84 16.97 12.81L16.97 9.31C17.36 8.33 17.98 7.83 18.79 7.83C19.04 7.83 19.22 7.85 19.36 7.90C19.50 7.94 19.61 7.97 19.70 7.97C19.78 7.97 19.85 7.90 19.88 7.78L20.03 6.85C19.75 6.68 19.43 6.59 19.07 6.59C18.14 6.59 17.43 7.13 16.91 8.18ZM23.73 6.62C23.21 6.62 22.75 6.71 22.33 6.87C21.91 7.04 21.55 7.29 21.25 7.60C20.96 7.91 20.73 8.30 20.57 8.75C20.40 9.20 20.34 9.70 20.34 10.26C20.34 10.82 20.40 11.33 20.57 11.77C20.73 12.22 20.96 12.61 21.25 12.92C21.55 13.23 21.91 13.48 22.33 13.65C22.75 13.82 23.21 13.90 23.73 13.90C24.25 13.90 24.71 13.82 25.13 13.65C25.55 13.48 25.91 13.23 26.21 12.92C26.50 12.61 26.73 12.22 26.88 11.77C27.03 11.33 27.12 10.82 27.12 10.26C27.12 9.70 27.03 9.20 26.88 8.75C26.73 8.30 26.50 7.91 26.21 7.60C25.91 7.29 25.55 7.04 25.13 6.87C24.71 6.71 24.25 6.62 23.73 6.62ZM23.73 12.95C23.37 12.95 23.06 12.87 22.81 12.75C22.55 12.64 22.33 12.47 22.16 12.25C21.99 12.03 21.85 11.75 21.77 11.41C21.69 11.07 21.63 10.71 21.63 10.29C21.63 9.87 21.69 9.48 21.77 9.14C21.85 8.81 21.99 8.53 22.16 8.30C22.33 8.08 22.55 7.88 22.81 7.77C23.06 7.66 23.37 7.60 23.73 7.60C24.43 7.60 24.96 7.83 25.30 8.30C25.63 8.78 25.82 9.44 25.82 10.28C25.82 11.12 25.63 11.77 25.30 12.25C24.96 12.73 24.43 12.95 23.73 12.95ZM30.46 13.93C30.79 13.93 31.09 13.87 31.40 13.76C31.71 13.65 31.96 13.48 32.19 13.29L31.82 12.70C31.77 12.61 31.71 12.59 31.65 12.59C31.63 12.59 31.57 12.61 31.51 12.64C31.46 12.67 31.42 12.71 31.35 12.75C31.28 12.80 31.19 12.84 31.09 12.87C31.00 12.89 30.88 12.92 30.74 12.92C30.52 12.92 30.31 12.85 30.17 12.71C30.03 12.57 29.96 12.35 29.96 12.04L29.96 7.78L31.99 7.78L31.99 6.87L29.96 6.87L29.96 4.44L29.33 4.44C29.25 4.44 29.19 4.45 29.13 4.49C29.08 4.54 29.05 4.59 29.05 4.66L28.77 6.86L27.61 7.01L27.61 7.50C27.61 7.59 27.62 7.67 27.68 7.71C27.73 7.76 27.79 7.77 27.87 7.77L28.73 7.77L28.73 12.11C28.73 12.70 28.87 13.15 29.18 13.45C29.48 13.76 29.90 13.93 30.46 13.93Z"></path></g><!----><g data-v-423bf9ae="" id="59c299cf-3bec-41b1-a2cf-079823af801c" transform="matrix(5.333333333333333,0,0,5.333333333333333,-85.33333333333326,-85.33333333333326)" stroke="none" fill="white"><path d="M488 16H216a8 8 0 0 0-8 8v40H24a8 8 0 0 0-8 8v416a8 8 0 0 0 8 8h272a8 8 0 0 0 8-8v-40h184a8 8 0 0 0 8-8V24a8 8 0 0 0-8-8zm-40 32c-10.429 0-19.321-6.689-22.624-16h45.248c-3.303 9.311-12.195 16-22.624 16zm-64 0c-10.429 0-19.321-6.689-22.624-16h45.248c-3.303 9.311-12.195 16-22.624 16zm-64 0c-10.429 0-19.321-6.689-22.624-16h45.248c-3.303 9.311-12.195 16-22.624 16zm-64 0c-10.429 0-19.321-6.689-22.624-16h45.248c-3.303 9.311-12.195 16-22.624 16zm192 16v110.369C428.385 141.819 392.694 120 352 120a111.77 111.77 0 0 0-48 10.801V72a8 8 0 0 0-8-8h152zm-144 84.855C318.549 140.439 335.049 136 352 136c45.331 0 83.42 31.583 93.428 73.9C426.096 192.486 391.832 168 352 168c-15.64 0-31.74 3.807-48 11.33v-30.475zM445.173 232c-6.557 6.833-19.608 19.281-36.555 29.791A63.584 63.584 0 0 0 416 232a63.588 63.588 0 0 0-7.382-29.792c16.949 10.511 30 22.961 36.555 29.792zM352 184c26.468 0 48 21.533 48 48s-21.532 48-48 48-48-21.533-48-48 21.532-48 48-48zm0 112c39.832 0 74.096-24.486 93.428-41.9C435.42 296.417 397.331 328 352 328c-16.939 0-33.453-4.434-48-12.848V284.67c16.259 7.523 32.359 11.33 48 11.33zm-48 37.199A111.81 111.81 0 0 0 352 344c40.694 0 76.385-21.819 96-54.369V400H304v-66.801zM384 416c10.429 0 19.321 6.689 22.624 16h-45.248c3.303-9.311 12.195-16 22.624-16zm64 0c10.429 0 19.321 6.689 22.624 16h-45.248c3.303-9.311 12.195-16 22.624-16zm16-12.65V392c0-10.429 6.689-19.321 16-22.624v46.652a40.228 40.228 0 0 0-16-12.678zm0-75.35c0-10.429 6.689-19.321 16-22.624v45.248c-9.311-3.303-16-12.195-16-22.624zm0-64c0-10.429 6.689-19.321 16-22.624v45.248c-9.311-3.303-16-12.195-16-22.624zm0-64c0-10.429 6.689-19.321 16-22.624v45.248c-9.311-3.303-16-12.195-16-22.624zm0-64c0-10.429 6.689-19.321 16-22.624v45.248c-9.311-3.303-16-12.195-16-22.624zm0-64V60.65a40.228 40.228 0 0 0 16-12.678v46.652c-9.311-3.303-16-12.195-16-22.624zM224 54.131A24.076 24.076 0 0 1 230.624 64H224v-9.869zM288 480H32V80h256v400zm16-64h16c10.429 0 19.321 6.689 22.624 16H304v-16zM264 96H56a8 8 0 0 0-8 8v352a8 8 0 0 0 8 8h208a8 8 0 0 0 8-8V104a8 8 0 0 0-8-8zM152 360c0-4.411 3.589-8 8-8s8 3.589 8 8-3.589 8-8 8-8-3.589-8-8zm8-202.459l8 20v159.836c-2.504-.888-5.196-1.376-8-1.376s-5.496.488-8 1.376V177.541l8-20zM136 272H64v-62.751l72 60.923V272zm-72 16h72v1.828l-72 60.923V288zm67.695 64h-4.948l9.084-15.374L131.695 352zm35.57 59.423L160 415.056l-7.265-3.632 3.951-27.657c1.084.15 2.189.234 3.314.234s2.23-.084 3.314-.234l3.951 27.656zM184 337.597v-1.256L193.253 352h-5.325L184 337.597zm.077-47.703l-.077.091V288h72v62.751l-71.923-60.857zM256 272h-72v-1.828l72-60.923V272zm-74.086-102.755L168 134.459V112h29.526l-15.612 57.245zM214.132 112h35.848l-65.811 111.373L214.132 112zM152 134.459l-14.988 37.47L122.003 112H152v22.459zm-16 87.943v1.256L70.02 112h35.87L136 222.402zm-6.97 20.912L64 188.289v-55.025l65.03 110.05zM64 371.711l65.029-55.025L108.162 352H104a8 8 0 0 0-4.481 14.627L64 426.736v-55.025zM117.292 368h10.098l-21.523 80H70.02l47.272-80zm23.815 11.675l-5.027 35.193a8.003 8.003 0 0 0 4.342 8.287L152 428.944V448h-29.526l18.633-68.325zM168 428.944l11.578-5.789a8.003 8.003 0 0 0 4.342-8.287l-4.212-29.486L197.423 448H168v-19.056zM192.292 368h10.416l47.273 80h-35.87l-21.819-80zm28.189-1.373A8 8 0 0 0 216 352h-4.162l-20.867-35.313L256 371.711v55.025l-35.519-60.109zM256 188.289l-65.029 55.025L256 133.264v55.025z"></path></g><!----></svg>